<mxfile host="Electron" agent="Mozilla/5.0 (Windows NT 10.0; Win64; x64) AppleWebKit/537.36 (KHTML, like Gecko) draw.io/24.7.8 Chrome/128.0.6613.36 Electron/32.0.1 Safari/537.36" version="24.7.8">
  <diagram name="Page-1" id="wJyq2nOgkUIbwT9R4vZr">
    <mxGraphModel dx="1900" dy="621" grid="1" gridSize="10" guides="1" tooltips="1" connect="1" arrows="1" fold="1" page="1" pageScale="1" pageWidth="850" pageHeight="1100" math="0" shadow="0">
      <root>
        <mxCell id="0" />
        <mxCell id="1" parent="0" />
        <mxCell id="eY3jFilrQS6MMeQwwwMx-7" value="&amp;lt;&amp;lt;interface&amp;gt;&amp;gt;&lt;div&gt;IObserver&lt;/div&gt;" style="swimlane;fontStyle=1;align=center;verticalAlign=top;childLayout=stackLayout;horizontal=1;startSize=40;horizontalStack=0;resizeParent=1;resizeParentMax=0;resizeLast=0;collapsible=1;marginBottom=0;whiteSpace=wrap;html=1;" parent="1" vertex="1">
          <mxGeometry x="-80" y="30" width="160" height="66" as="geometry" />
        </mxCell>
        <mxCell id="eY3jFilrQS6MMeQwwwMx-8" value="+ update(ISubject*) : void" style="text;strokeColor=none;fillColor=none;align=left;verticalAlign=top;spacingLeft=4;spacingRight=4;overflow=hidden;rotatable=0;points=[[0,0.5],[1,0.5]];portConstraint=eastwest;whiteSpace=wrap;html=1;" parent="eY3jFilrQS6MMeQwwwMx-7" vertex="1">
          <mxGeometry y="40" width="160" height="26" as="geometry" />
        </mxCell>
        <mxCell id="eY3jFilrQS6MMeQwwwMx-11" value="&amp;lt;&amp;lt;interface&amp;gt;&amp;gt;&lt;div&gt;ISubject&lt;/div&gt;" style="swimlane;fontStyle=0;childLayout=stackLayout;horizontal=1;startSize=26;fillColor=none;horizontalStack=0;resizeParent=1;resizeParentMax=0;resizeLast=0;collapsible=1;marginBottom=0;whiteSpace=wrap;html=1;" parent="1" vertex="1">
          <mxGeometry x="-320" y="30" width="160" height="80" as="geometry" />
        </mxCell>
        <mxCell id="eY3jFilrQS6MMeQwwwMx-12" value="+ notify() : void" style="text;strokeColor=none;fillColor=none;align=left;verticalAlign=top;spacingLeft=4;spacingRight=4;overflow=hidden;rotatable=0;points=[[0,0.5],[1,0.5]];portConstraint=eastwest;whiteSpace=wrap;html=1;" parent="eY3jFilrQS6MMeQwwwMx-11" vertex="1">
          <mxGeometry y="26" width="160" height="26" as="geometry" />
        </mxCell>
        <mxCell id="eY3jFilrQS6MMeQwwwMx-13" value="+ attach(IObserver*) : void" style="text;strokeColor=none;fillColor=none;align=left;verticalAlign=top;spacingLeft=4;spacingRight=4;overflow=hidden;rotatable=0;points=[[0,0.5],[1,0.5]];portConstraint=eastwest;whiteSpace=wrap;html=1;" parent="eY3jFilrQS6MMeQwwwMx-11" vertex="1">
          <mxGeometry y="52" width="160" height="28" as="geometry" />
        </mxCell>
        <mxCell id="eY3jFilrQS6MMeQwwwMx-15" value="Subject" style="swimlane;fontStyle=1;align=center;verticalAlign=top;childLayout=stackLayout;horizontal=1;startSize=26;horizontalStack=0;resizeParent=1;resizeParentMax=0;resizeLast=0;collapsible=1;marginBottom=0;whiteSpace=wrap;html=1;" parent="1" vertex="1">
          <mxGeometry x="-345" y="180" width="210" height="120" as="geometry" />
        </mxCell>
        <mxCell id="eY3jFilrQS6MMeQwwwMx-16" value="- observerList: std::vector&amp;lt;IObserver" style="text;strokeColor=none;fillColor=none;align=left;verticalAlign=top;spacingLeft=4;spacingRight=4;overflow=hidden;rotatable=0;points=[[0,0.5],[1,0.5]];portConstraint=eastwest;whiteSpace=wrap;html=1;" parent="eY3jFilrQS6MMeQwwwMx-15" vertex="1">
          <mxGeometry y="26" width="210" height="26" as="geometry" />
        </mxCell>
        <mxCell id="eY3jFilrQS6MMeQwwwMx-17" value="" style="line;strokeWidth=1;fillColor=none;align=left;verticalAlign=middle;spacingTop=-1;spacingLeft=3;spacingRight=3;rotatable=0;labelPosition=right;points=[];portConstraint=eastwest;strokeColor=inherit;" parent="eY3jFilrQS6MMeQwwwMx-15" vertex="1">
          <mxGeometry y="52" width="210" height="8" as="geometry" />
        </mxCell>
        <mxCell id="eY3jFilrQS6MMeQwwwMx-18" value="+ notify(): void&lt;div&gt;&lt;br&gt;&lt;/div&gt;" style="text;strokeColor=none;fillColor=none;align=left;verticalAlign=top;spacingLeft=4;spacingRight=4;overflow=hidden;rotatable=0;points=[[0,0.5],[1,0.5]];portConstraint=eastwest;whiteSpace=wrap;html=1;" parent="eY3jFilrQS6MMeQwwwMx-15" vertex="1">
          <mxGeometry y="60" width="210" height="30" as="geometry" />
        </mxCell>
        <mxCell id="eY3jFilrQS6MMeQwwwMx-20" value="+ attach(IObserver*): void" style="text;strokeColor=none;fillColor=none;align=left;verticalAlign=top;spacingLeft=4;spacingRight=4;overflow=hidden;rotatable=0;points=[[0,0.5],[1,0.5]];portConstraint=eastwest;whiteSpace=wrap;html=1;" parent="eY3jFilrQS6MMeQwwwMx-15" vertex="1">
          <mxGeometry y="90" width="210" height="30" as="geometry" />
        </mxCell>
        <mxCell id="eY3jFilrQS6MMeQwwwMx-26" value="" style="endArrow=block;endSize=16;endFill=0;html=1;rounded=0;" parent="1" source="eY3jFilrQS6MMeQwwwMx-15" target="eY3jFilrQS6MMeQwwwMx-11" edge="1">
          <mxGeometry x="1" y="114" width="160" relative="1" as="geometry">
            <mxPoint x="-630" y="150" as="sourcePoint" />
            <mxPoint x="-470" y="150" as="targetPoint" />
            <mxPoint x="70" y="24" as="offset" />
          </mxGeometry>
        </mxCell>
        <mxCell id="eY3jFilrQS6MMeQwwwMx-28" value="SystemTime&lt;div&gt;&amp;nbsp;(Singleton)&lt;/div&gt;" style="swimlane;fontStyle=1;align=center;verticalAlign=top;childLayout=stackLayout;horizontal=1;startSize=40;horizontalStack=0;resizeParent=1;resizeParentMax=0;resizeLast=0;collapsible=1;marginBottom=0;whiteSpace=wrap;html=1;" parent="1" vertex="1">
          <mxGeometry x="-755" y="220" width="240" height="476" as="geometry" />
        </mxCell>
        <mxCell id="eY3jFilrQS6MMeQwwwMx-29" value="- ntpUDP: WiFiUDP&lt;div&gt;- timeClient: NTPClient&lt;/div&gt;&lt;div&gt;- formattedDate: String&lt;/div&gt;&lt;div&gt;- dayStamp: String&lt;/div&gt;&lt;div&gt;- timeStamp: String&lt;/div&gt;&lt;div&gt;- timeUpdated: boolean&lt;/div&gt;&lt;div&gt;- rtc: ESP32Time&lt;/div&gt;&lt;div&gt;- &lt;u&gt;instanse: SystemTime*&lt;/u&gt;&lt;/div&gt;" style="text;strokeColor=none;fillColor=none;align=left;verticalAlign=top;spacingLeft=4;spacingRight=4;overflow=hidden;rotatable=0;points=[[0,0.5],[1,0.5]];portConstraint=eastwest;whiteSpace=wrap;html=1;" parent="eY3jFilrQS6MMeQwwwMx-28" vertex="1">
          <mxGeometry y="40" width="240" height="124" as="geometry" />
        </mxCell>
        <mxCell id="eY3jFilrQS6MMeQwwwMx-30" value="" style="line;strokeWidth=1;fillColor=none;align=left;verticalAlign=middle;spacingTop=-1;spacingLeft=3;spacingRight=3;rotatable=0;labelPosition=right;points=[];portConstraint=eastwest;strokeColor=inherit;" parent="eY3jFilrQS6MMeQwwwMx-28" vertex="1">
          <mxGeometry y="164" width="240" height="8" as="geometry" />
        </mxCell>
        <mxCell id="eY3jFilrQS6MMeQwwwMx-31" value="+&amp;nbsp;&lt;u&gt;getInstance(): SystemTime*&lt;/u&gt;&lt;div&gt;+ obtainTime(): void&lt;/div&gt;&lt;div&gt;+ isTimeUpdated(): boolean&lt;/div&gt;&lt;div&gt;+ getMinute(): int&lt;/div&gt;&lt;div&gt;+ getHour(): int&lt;/div&gt;&lt;div&gt;+ getDay(): int&lt;/div&gt;&lt;div&gt;+ getMonth(): int&lt;/div&gt;&lt;div&gt;+ getYear(): int&lt;/div&gt;&lt;div&gt;- LostTrackOfTime(): void&lt;/div&gt;&lt;div&gt;- SystemTime(): SystemTime&lt;/div&gt;" style="text;strokeColor=none;fillColor=none;align=left;verticalAlign=top;spacingLeft=4;spacingRight=4;overflow=hidden;rotatable=0;points=[[0,0.5],[1,0.5]];portConstraint=eastwest;whiteSpace=wrap;html=1;" parent="eY3jFilrQS6MMeQwwwMx-28" vertex="1">
          <mxGeometry y="172" width="240" height="152" as="geometry" />
        </mxCell>
        <mxCell id="eY3jFilrQS6MMeQwwwMx-39" value="+&amp;nbsp;&lt;u&gt;getInstance(): SystemTime*&lt;/u&gt;&lt;div&gt;+ obtainTime(): void&lt;/div&gt;&lt;div&gt;+ isTimeUpdated(): boolean&lt;/div&gt;&lt;div&gt;+ getMinute(): int&lt;/div&gt;&lt;div&gt;+ getHour(): int&lt;/div&gt;&lt;div&gt;+ getDay(): int&lt;/div&gt;&lt;div&gt;+ getMonth(): int&lt;/div&gt;&lt;div&gt;+ getYear(): int&lt;/div&gt;&lt;div&gt;- LostTrackOfTime(): void&lt;/div&gt;&lt;div&gt;- SystemTime(): SystemTime&lt;/div&gt;" style="text;strokeColor=none;fillColor=none;align=left;verticalAlign=top;spacingLeft=4;spacingRight=4;overflow=hidden;rotatable=0;points=[[0,0.5],[1,0.5]];portConstraint=eastwest;whiteSpace=wrap;html=1;" parent="eY3jFilrQS6MMeQwwwMx-28" vertex="1">
          <mxGeometry y="324" width="240" height="152" as="geometry" />
        </mxCell>
        <mxCell id="eY3jFilrQS6MMeQwwwMx-32" value="WiFiUDP(lib)" style="html=1;whiteSpace=wrap;" parent="1" vertex="1">
          <mxGeometry x="-625" y="48" width="110" height="30" as="geometry" />
        </mxCell>
        <mxCell id="eY3jFilrQS6MMeQwwwMx-34" value="NTPClient(lib)" style="html=1;whiteSpace=wrap;" parent="1" vertex="1">
          <mxGeometry x="-625" y="100" width="110" height="30" as="geometry" />
        </mxCell>
        <mxCell id="eY3jFilrQS6MMeQwwwMx-40" value="ESP32Time(lib)" style="html=1;whiteSpace=wrap;" parent="1" vertex="1">
          <mxGeometry x="-625" y="150" width="110" height="30" as="geometry" />
        </mxCell>
        <mxCell id="eY3jFilrQS6MMeQwwwMx-41" value="Time" style="swimlane;fontStyle=1;align=center;verticalAlign=top;childLayout=stackLayout;horizontal=1;startSize=26;horizontalStack=0;resizeParent=1;resizeParentMax=0;resizeLast=0;collapsible=1;marginBottom=0;whiteSpace=wrap;html=1;" parent="1" vertex="1">
          <mxGeometry x="-345" y="335" width="220" height="200" as="geometry" />
        </mxCell>
        <mxCell id="eY3jFilrQS6MMeQwwwMx-42" value="- Hour; int= 0&lt;div&gt;- Minute: int= 0&lt;/div&gt;" style="text;strokeColor=none;fillColor=none;align=left;verticalAlign=top;spacingLeft=4;spacingRight=4;overflow=hidden;rotatable=0;points=[[0,0.5],[1,0.5]];portConstraint=eastwest;whiteSpace=wrap;html=1;" parent="eY3jFilrQS6MMeQwwwMx-41" vertex="1">
          <mxGeometry y="26" width="220" height="34" as="geometry" />
        </mxCell>
        <mxCell id="eY3jFilrQS6MMeQwwwMx-43" value="" style="line;strokeWidth=1;fillColor=none;align=left;verticalAlign=middle;spacingTop=-1;spacingLeft=3;spacingRight=3;rotatable=0;labelPosition=right;points=[];portConstraint=eastwest;strokeColor=inherit;" parent="eY3jFilrQS6MMeQwwwMx-41" vertex="1">
          <mxGeometry y="60" width="220" height="8" as="geometry" />
        </mxCell>
        <mxCell id="eY3jFilrQS6MMeQwwwMx-44" value="+ Time(hour: int, minute: int)&lt;div&gt;+ getHour(): int&lt;/div&gt;&lt;div&gt;+ getMinute(): int&lt;/div&gt;&lt;div&gt;+ getTimeInMinutes(): int&lt;/div&gt;&lt;div&gt;+ setHour(int): void&lt;/div&gt;&lt;div&gt;+ setMinute(int): void&lt;/div&gt;&lt;div&gt;+ setTimeInMinutes(int): void&lt;/div&gt;&lt;div&gt;+ setTime(hour: int, minute: int): void&lt;/div&gt;" style="text;strokeColor=none;fillColor=none;align=left;verticalAlign=top;spacingLeft=4;spacingRight=4;overflow=hidden;rotatable=0;points=[[0,0.5],[1,0.5]];portConstraint=eastwest;whiteSpace=wrap;html=1;" parent="eY3jFilrQS6MMeQwwwMx-41" vertex="1">
          <mxGeometry y="68" width="220" height="132" as="geometry" />
        </mxCell>
        <mxCell id="eY3jFilrQS6MMeQwwwMx-45" value="" style="endArrow=open;endFill=1;endSize=12;html=1;rounded=0;entryX=0.011;entryY=0.754;entryDx=0;entryDy=0;entryPerimeter=0;" parent="1" target="eY3jFilrQS6MMeQwwwMx-44" edge="1">
          <mxGeometry width="160" relative="1" as="geometry">
            <mxPoint x="-516" y="500" as="sourcePoint" />
            <mxPoint x="-330" y="620" as="targetPoint" />
            <Array as="points" />
          </mxGeometry>
        </mxCell>
        <mxCell id="eY3jFilrQS6MMeQwwwMx-46" value="Configuration&lt;div&gt;(singleton)&lt;/div&gt;" style="swimlane;fontStyle=1;align=center;verticalAlign=top;childLayout=stackLayout;horizontal=1;startSize=40;horizontalStack=0;resizeParent=1;resizeParentMax=0;resizeLast=0;collapsible=1;marginBottom=0;whiteSpace=wrap;html=1;" parent="1" vertex="1">
          <mxGeometry x="140" y="335" width="240" height="210" as="geometry" />
        </mxCell>
        <mxCell id="eY3jFilrQS6MMeQwwwMx-47" value="- pumpSchedule: Time&lt;div&gt;- wiFiCredentials: Strings&lt;/div&gt;&lt;div&gt;- dnsConfig:IPAddress&lt;/div&gt;&lt;div&gt;- estimatedTime: Time&lt;/div&gt;" style="text;strokeColor=none;fillColor=none;align=left;verticalAlign=top;spacingLeft=4;spacingRight=4;overflow=hidden;rotatable=0;points=[[0,0.5],[1,0.5]];portConstraint=eastwest;whiteSpace=wrap;html=1;" parent="eY3jFilrQS6MMeQwwwMx-46" vertex="1">
          <mxGeometry y="40" width="240" height="70" as="geometry" />
        </mxCell>
        <mxCell id="eY3jFilrQS6MMeQwwwMx-48" value="" style="line;strokeWidth=1;fillColor=none;align=left;verticalAlign=middle;spacingTop=-1;spacingLeft=3;spacingRight=3;rotatable=0;labelPosition=right;points=[];portConstraint=eastwest;strokeColor=inherit;" parent="eY3jFilrQS6MMeQwwwMx-46" vertex="1">
          <mxGeometry y="110" width="240" height="10" as="geometry" />
        </mxCell>
        <mxCell id="eY3jFilrQS6MMeQwwwMx-49" value="+ getPumpSchedule(): Time&lt;div&gt;+ getWiFiCredentials(): Credentials&lt;/div&gt;&lt;div&gt;+ getDnsConfig(): IPAddress&lt;/div&gt;&lt;div&gt;+ setPumpSchedule(Time): void&lt;/div&gt;&lt;div&gt;+ setWiFiCredentials(Credentials): void&lt;/div&gt;" style="text;strokeColor=none;fillColor=none;align=left;verticalAlign=top;spacingLeft=4;spacingRight=4;overflow=hidden;rotatable=0;points=[[0,0.5],[1,0.5]];portConstraint=eastwest;whiteSpace=wrap;html=1;" parent="eY3jFilrQS6MMeQwwwMx-46" vertex="1">
          <mxGeometry y="120" width="240" height="90" as="geometry" />
        </mxCell>
        <mxCell id="eY3jFilrQS6MMeQwwwMx-50" value="SPIFFS&lt;div&gt;(lib)&lt;/div&gt;" style="html=1;whiteSpace=wrap;" parent="1" vertex="1">
          <mxGeometry x="270" y="260" width="110" height="40" as="geometry" />
        </mxCell>
        <mxCell id="eY3jFilrQS6MMeQwwwMx-51" value="FirebaseManager&lt;div&gt;(Not Implemented Yet)&lt;/div&gt;" style="swimlane;fontStyle=1;align=center;verticalAlign=top;childLayout=stackLayout;horizontal=1;startSize=40;horizontalStack=0;resizeParent=1;resizeParentMax=0;resizeLast=0;collapsible=1;marginBottom=0;whiteSpace=wrap;html=1;" parent="1" vertex="1">
          <mxGeometry x="430" y="30" width="160" height="100" as="geometry" />
        </mxCell>
        <mxCell id="eY3jFilrQS6MMeQwwwMx-52" value="&amp;nbsp;" style="text;strokeColor=none;fillColor=none;align=left;verticalAlign=top;spacingLeft=4;spacingRight=4;overflow=hidden;rotatable=0;points=[[0,0.5],[1,0.5]];portConstraint=eastwest;whiteSpace=wrap;html=1;" parent="eY3jFilrQS6MMeQwwwMx-51" vertex="1">
          <mxGeometry y="40" width="160" height="26" as="geometry" />
        </mxCell>
        <mxCell id="eY3jFilrQS6MMeQwwwMx-53" value="" style="line;strokeWidth=1;fillColor=none;align=left;verticalAlign=middle;spacingTop=-1;spacingLeft=3;spacingRight=3;rotatable=0;labelPosition=right;points=[];portConstraint=eastwest;strokeColor=inherit;" parent="eY3jFilrQS6MMeQwwwMx-51" vertex="1">
          <mxGeometry y="66" width="160" height="8" as="geometry" />
        </mxCell>
        <mxCell id="eY3jFilrQS6MMeQwwwMx-54" value="&amp;nbsp;" style="text;strokeColor=none;fillColor=none;align=left;verticalAlign=top;spacingLeft=4;spacingRight=4;overflow=hidden;rotatable=0;points=[[0,0.5],[1,0.5]];portConstraint=eastwest;whiteSpace=wrap;html=1;" parent="eY3jFilrQS6MMeQwwwMx-51" vertex="1">
          <mxGeometry y="74" width="160" height="26" as="geometry" />
        </mxCell>
        <mxCell id="eY3jFilrQS6MMeQwwwMx-55" value="CppVirtualInterface" style="swimlane;fontStyle=1;align=center;verticalAlign=top;childLayout=stackLayout;horizontal=1;startSize=26;horizontalStack=0;resizeParent=1;resizeParentMax=0;resizeLast=0;collapsible=1;marginBottom=0;whiteSpace=wrap;html=1;" parent="1" vertex="1">
          <mxGeometry x="180" y="20" width="160" height="86" as="geometry" />
        </mxCell>
        <mxCell id="eY3jFilrQS6MMeQwwwMx-56" value="&amp;nbsp;" style="text;strokeColor=none;fillColor=none;align=left;verticalAlign=top;spacingLeft=4;spacingRight=4;overflow=hidden;rotatable=0;points=[[0,0.5],[1,0.5]];portConstraint=eastwest;whiteSpace=wrap;html=1;" parent="eY3jFilrQS6MMeQwwwMx-55" vertex="1">
          <mxGeometry y="26" width="160" height="26" as="geometry" />
        </mxCell>
        <mxCell id="eY3jFilrQS6MMeQwwwMx-57" value="" style="line;strokeWidth=1;fillColor=none;align=left;verticalAlign=middle;spacingTop=-1;spacingLeft=3;spacingRight=3;rotatable=0;labelPosition=right;points=[];portConstraint=eastwest;strokeColor=inherit;" parent="eY3jFilrQS6MMeQwwwMx-55" vertex="1">
          <mxGeometry y="52" width="160" height="8" as="geometry" />
        </mxCell>
        <mxCell id="eY3jFilrQS6MMeQwwwMx-58" value="+ virtulaMain(): int" style="text;strokeColor=none;fillColor=none;align=left;verticalAlign=top;spacingLeft=4;spacingRight=4;overflow=hidden;rotatable=0;points=[[0,0.5],[1,0.5]];portConstraint=eastwest;whiteSpace=wrap;html=1;" parent="eY3jFilrQS6MMeQwwwMx-55" vertex="1">
          <mxGeometry y="60" width="160" height="26" as="geometry" />
        </mxCell>
        <mxCell id="eY3jFilrQS6MMeQwwwMx-59" value="Pump&lt;div&gt;(singleton)&lt;/div&gt;" style="swimlane;fontStyle=1;align=center;verticalAlign=top;childLayout=stackLayout;horizontal=1;startSize=40;horizontalStack=0;resizeParent=1;resizeParentMax=0;resizeLast=0;collapsible=1;marginBottom=0;whiteSpace=wrap;html=1;" parent="1" vertex="1">
          <mxGeometry x="560" y="170" width="240" height="200" as="geometry" />
        </mxCell>
        <mxCell id="eY3jFilrQS6MMeQwwwMx-60" value="- pumpState: Pump::PumpState&lt;div&gt;- manualTime: Time&lt;/div&gt;&lt;div&gt;- manualOn:boolean&lt;/div&gt;&lt;div&gt;- &lt;u&gt;intstance: Pump*&lt;/u&gt;&lt;/div&gt;" style="text;strokeColor=none;fillColor=none;align=left;verticalAlign=top;spacingLeft=4;spacingRight=4;overflow=hidden;rotatable=0;points=[[0,0.5],[1,0.5]];portConstraint=eastwest;whiteSpace=wrap;html=1;" parent="eY3jFilrQS6MMeQwwwMx-59" vertex="1">
          <mxGeometry y="40" width="240" height="70" as="geometry" />
        </mxCell>
        <mxCell id="eY3jFilrQS6MMeQwwwMx-61" value="" style="line;strokeWidth=1;fillColor=none;align=left;verticalAlign=middle;spacingTop=-1;spacingLeft=3;spacingRight=3;rotatable=0;labelPosition=right;points=[];portConstraint=eastwest;strokeColor=inherit;" parent="eY3jFilrQS6MMeQwwwMx-59" vertex="1">
          <mxGeometry y="110" width="240" height="8" as="geometry" />
        </mxCell>
        <mxCell id="eY3jFilrQS6MMeQwwwMx-62" value="+ &lt;u&gt;getInstance(): Pump*&lt;/u&gt;&lt;div&gt;+ getPumpState(): boolean&lt;/div&gt;&lt;div&gt;+ manualSwich(manualTime:int= -1)&lt;/div&gt;&lt;div&gt;+ loop(CurrentHour: int, currentMinute: int)&lt;/div&gt;&lt;div&gt;-&amp;nbsp; Pump(): Pump&lt;/div&gt;" style="text;strokeColor=none;fillColor=none;align=left;verticalAlign=top;spacingLeft=4;spacingRight=4;overflow=hidden;rotatable=0;points=[[0,0.5],[1,0.5]];portConstraint=eastwest;whiteSpace=wrap;html=1;" parent="eY3jFilrQS6MMeQwwwMx-59" vertex="1">
          <mxGeometry y="118" width="240" height="82" as="geometry" />
        </mxCell>
        <mxCell id="eY3jFilrQS6MMeQwwwMx-63" value="ArduinoJson(lib)" style="html=1;whiteSpace=wrap;" parent="1" vertex="1">
          <mxGeometry x="650" y="417.5" width="120" height="25" as="geometry" />
        </mxCell>
        <mxCell id="eY3jFilrQS6MMeQwwwMx-64" value="ESPAsyncWebServer" style="html=1;whiteSpace=wrap;" parent="1" vertex="1">
          <mxGeometry x="650" y="450" width="120" height="30" as="geometry" />
        </mxCell>
        <mxCell id="eY3jFilrQS6MMeQwwwMx-65" value="WebInterface" style="swimlane;fontStyle=1;align=center;verticalAlign=top;childLayout=stackLayout;horizontal=1;startSize=26;horizontalStack=0;resizeParent=1;resizeParentMax=0;resizeLast=0;collapsible=1;marginBottom=0;whiteSpace=wrap;html=1;" parent="1" vertex="1">
          <mxGeometry x="590" y="510" width="180" height="100" as="geometry" />
        </mxCell>
        <mxCell id="eY3jFilrQS6MMeQwwwMx-66" value="- server: AsyncWebServer" style="text;strokeColor=none;fillColor=none;align=left;verticalAlign=top;spacingLeft=4;spacingRight=4;overflow=hidden;rotatable=0;points=[[0,0.5],[1,0.5]];portConstraint=eastwest;whiteSpace=wrap;html=1;" parent="eY3jFilrQS6MMeQwwwMx-65" vertex="1">
          <mxGeometry y="26" width="180" height="26" as="geometry" />
        </mxCell>
        <mxCell id="eY3jFilrQS6MMeQwwwMx-67" value="" style="line;strokeWidth=1;fillColor=none;align=left;verticalAlign=middle;spacingTop=-1;spacingLeft=3;spacingRight=3;rotatable=0;labelPosition=right;points=[];portConstraint=eastwest;strokeColor=inherit;" parent="eY3jFilrQS6MMeQwwwMx-65" vertex="1">
          <mxGeometry y="52" width="180" height="8" as="geometry" />
        </mxCell>
        <mxCell id="eY3jFilrQS6MMeQwwwMx-68" value="+ WebInterface(): WebInterface&lt;div&gt;+ init(): void&lt;/div&gt;" style="text;strokeColor=none;fillColor=none;align=left;verticalAlign=top;spacingLeft=4;spacingRight=4;overflow=hidden;rotatable=0;points=[[0,0.5],[1,0.5]];portConstraint=eastwest;whiteSpace=wrap;html=1;" parent="eY3jFilrQS6MMeQwwwMx-65" vertex="1">
          <mxGeometry y="60" width="180" height="40" as="geometry" />
        </mxCell>
        <mxCell id="eY3jFilrQS6MMeQwwwMx-69" value="WiFi(lib)" style="html=1;whiteSpace=wrap;" parent="1" vertex="1">
          <mxGeometry x="650" y="680" width="110" height="30" as="geometry" />
        </mxCell>
        <mxCell id="eY3jFilrQS6MMeQwwwMx-70" value="WiFiSetup&lt;div&gt;(singleton)&lt;/div&gt;" style="swimlane;fontStyle=1;align=center;verticalAlign=top;childLayout=stackLayout;horizontal=1;startSize=40;horizontalStack=0;resizeParent=1;resizeParentMax=0;resizeLast=0;collapsible=1;marginBottom=0;whiteSpace=wrap;html=1;" parent="1" vertex="1">
          <mxGeometry x="590" y="740" width="170" height="130" as="geometry" />
        </mxCell>
        <mxCell id="eY3jFilrQS6MMeQwwwMx-71" value="- &lt;u&gt;instance: WiFiSetup*&lt;/u&gt;" style="text;strokeColor=none;fillColor=none;align=left;verticalAlign=top;spacingLeft=4;spacingRight=4;overflow=hidden;rotatable=0;points=[[0,0.5],[1,0.5]];portConstraint=eastwest;whiteSpace=wrap;html=1;" parent="eY3jFilrQS6MMeQwwwMx-70" vertex="1">
          <mxGeometry y="40" width="170" height="26" as="geometry" />
        </mxCell>
        <mxCell id="eY3jFilrQS6MMeQwwwMx-72" value="" style="line;strokeWidth=1;fillColor=none;align=left;verticalAlign=middle;spacingTop=-1;spacingLeft=3;spacingRight=3;rotatable=0;labelPosition=right;points=[];portConstraint=eastwest;strokeColor=inherit;" parent="eY3jFilrQS6MMeQwwwMx-70" vertex="1">
          <mxGeometry y="66" width="170" height="8" as="geometry" />
        </mxCell>
        <mxCell id="eY3jFilrQS6MMeQwwwMx-73" value="+ &lt;u&gt;getInstance(): WiFiSetup*&lt;/u&gt;&lt;div&gt;+ is Connected(): boolean&lt;/div&gt;&lt;div&gt;- WiFiSetup(): WiFiSetup&lt;/div&gt;" style="text;strokeColor=none;fillColor=none;align=left;verticalAlign=top;spacingLeft=4;spacingRight=4;overflow=hidden;rotatable=0;points=[[0,0.5],[1,0.5]];portConstraint=eastwest;whiteSpace=wrap;html=1;" parent="eY3jFilrQS6MMeQwwwMx-70" vertex="1">
          <mxGeometry y="74" width="170" height="56" as="geometry" />
        </mxCell>
        <mxCell id="eY3jFilrQS6MMeQwwwMx-87" value="&lt;span style=&quot;font-weight: 400;&quot;&gt;Display&lt;/span&gt;&lt;div style=&quot;font-weight: 400;&quot;&gt;(Singleton)&lt;/div&gt;" style="swimlane;fontStyle=1;align=center;verticalAlign=top;childLayout=stackLayout;horizontal=1;startSize=40;horizontalStack=0;resizeParent=1;resizeParentMax=0;resizeLast=0;collapsible=1;marginBottom=0;whiteSpace=wrap;html=1;" parent="1" vertex="1">
          <mxGeometry x="170" y="680" width="220" height="210" as="geometry" />
        </mxCell>
        <mxCell id="eY3jFilrQS6MMeQwwwMx-88" value="- text: std::string&lt;div&gt;- oled: u8g2lib&lt;/div&gt;&lt;div&gt;- &lt;u&gt;instance: Display*&lt;/u&gt;&lt;br&gt;&lt;div&gt;&lt;br&gt;&lt;/div&gt;&lt;/div&gt;" style="text;strokeColor=none;fillColor=none;align=left;verticalAlign=top;spacingLeft=4;spacingRight=4;overflow=hidden;rotatable=0;points=[[0,0.5],[1,0.5]];portConstraint=eastwest;whiteSpace=wrap;html=1;" parent="eY3jFilrQS6MMeQwwwMx-87" vertex="1">
          <mxGeometry y="40" width="220" height="50" as="geometry" />
        </mxCell>
        <mxCell id="eY3jFilrQS6MMeQwwwMx-89" value="" style="line;strokeWidth=1;fillColor=none;align=left;verticalAlign=middle;spacingTop=-1;spacingLeft=3;spacingRight=3;rotatable=0;labelPosition=right;points=[];portConstraint=eastwest;strokeColor=inherit;" parent="eY3jFilrQS6MMeQwwwMx-87" vertex="1">
          <mxGeometry y="90" width="220" height="8" as="geometry" />
        </mxCell>
        <mxCell id="eY3jFilrQS6MMeQwwwMx-90" value="+ &lt;u&gt;getInstance: Display*&lt;/u&gt;&lt;div&gt;+ drawMultiLineText(x: int, y: int, text: const char*)&lt;/div&gt;&lt;div&gt;+ toStringWithPrecision(value: double, precision: int): std::string&lt;/div&gt;&lt;div&gt;+ drawUI(): void&lt;/div&gt;&lt;div&gt;- Display(): Display&lt;/div&gt;" style="text;strokeColor=none;fillColor=none;align=left;verticalAlign=top;spacingLeft=4;spacingRight=4;overflow=hidden;rotatable=0;points=[[0,0.5],[1,0.5]];portConstraint=eastwest;whiteSpace=wrap;html=1;" parent="eY3jFilrQS6MMeQwwwMx-87" vertex="1">
          <mxGeometry y="98" width="220" height="112" as="geometry" />
        </mxCell>
        <mxCell id="eY3jFilrQS6MMeQwwwMx-91" value="U8G2lib (lib)" style="html=1;whiteSpace=wrap;" parent="1" vertex="1">
          <mxGeometry x="270" y="600" width="110" height="30" as="geometry" />
        </mxCell>
        <mxCell id="eY3jFilrQS6MMeQwwwMx-97" value="Temperature&lt;div&gt;(Singleton)&lt;/div&gt;" style="swimlane;fontStyle=1;align=center;verticalAlign=top;childLayout=stackLayout;horizontal=1;startSize=40;horizontalStack=0;resizeParent=1;resizeParentMax=0;resizeLast=0;collapsible=1;marginBottom=0;whiteSpace=wrap;html=1;" parent="1" vertex="1">
          <mxGeometry x="-220" y="680" width="280" height="180" as="geometry" />
        </mxCell>
        <mxCell id="eY3jFilrQS6MMeQwwwMx-98" value="- oneWireBus: OneWire&lt;div&gt;- sensors: DallasTemperature&lt;/div&gt;&lt;div&gt;- &lt;u&gt;instance: Temperature*&lt;/u&gt;&lt;/div&gt;" style="text;strokeColor=none;fillColor=none;align=left;verticalAlign=top;spacingLeft=4;spacingRight=4;overflow=hidden;rotatable=0;points=[[0,0.5],[1,0.5]];portConstraint=eastwest;whiteSpace=wrap;html=1;" parent="eY3jFilrQS6MMeQwwwMx-97" vertex="1">
          <mxGeometry y="40" width="280" height="50" as="geometry" />
        </mxCell>
        <mxCell id="eY3jFilrQS6MMeQwwwMx-99" value="" style="line;strokeWidth=1;fillColor=none;align=left;verticalAlign=middle;spacingTop=-1;spacingLeft=3;spacingRight=3;rotatable=0;labelPosition=right;points=[];portConstraint=eastwest;strokeColor=inherit;" parent="eY3jFilrQS6MMeQwwwMx-97" vertex="1">
          <mxGeometry y="90" width="280" height="8" as="geometry" />
        </mxCell>
        <mxCell id="eY3jFilrQS6MMeQwwwMx-100" value="+ &lt;u&gt;getInstance(): Temperature*&lt;/u&gt;&lt;div&gt;+ read(doNotify: bool = false): void&lt;/div&gt;&lt;div&gt;+ getData(name: std::string): double&lt;/div&gt;&lt;div&gt;- obtainSensors(): std::vector&amp;lt;TempSensorNote&amp;gt;&lt;/div&gt;&lt;div&gt;- Temperature(): Temperature&lt;br&gt;&lt;div&gt;&lt;br&gt;&lt;/div&gt;&lt;/div&gt;" style="text;strokeColor=none;fillColor=none;align=left;verticalAlign=top;spacingLeft=4;spacingRight=4;overflow=hidden;rotatable=0;points=[[0,0.5],[1,0.5]];portConstraint=eastwest;whiteSpace=wrap;html=1;" parent="eY3jFilrQS6MMeQwwwMx-97" vertex="1">
          <mxGeometry y="98" width="280" height="82" as="geometry" />
        </mxCell>
        <mxCell id="eY3jFilrQS6MMeQwwwMx-102" value="" style="endArrow=diamondThin;endFill=1;endSize=24;html=1;rounded=0;entryX=1;entryY=0.5;entryDx=0;entryDy=0;" parent="1" source="eY3jFilrQS6MMeQwwwMx-28" target="eY3jFilrQS6MMeQwwwMx-32" edge="1">
          <mxGeometry width="160" relative="1" as="geometry">
            <mxPoint x="-560" y="600" as="sourcePoint" />
            <mxPoint x="-400" y="600" as="targetPoint" />
            <Array as="points">
              <mxPoint x="-440" y="460" />
              <mxPoint x="-440" y="63" />
            </Array>
          </mxGeometry>
        </mxCell>
        <mxCell id="eY3jFilrQS6MMeQwwwMx-103" value="" style="endArrow=diamondThin;endFill=1;endSize=24;html=1;rounded=0;exitX=1.005;exitY=0.2;exitDx=0;exitDy=0;exitPerimeter=0;" parent="1" source="eY3jFilrQS6MMeQwwwMx-31" target="eY3jFilrQS6MMeQwwwMx-40" edge="1">
          <mxGeometry width="160" relative="1" as="geometry">
            <mxPoint x="-360" y="450" as="sourcePoint" />
            <mxPoint x="-400" y="460" as="targetPoint" />
            <Array as="points">
              <mxPoint x="-480" y="422" />
              <mxPoint x="-480" y="170" />
            </Array>
          </mxGeometry>
        </mxCell>
        <mxCell id="eY3jFilrQS6MMeQwwwMx-104" value="" style="endArrow=diamondThin;endFill=1;endSize=24;html=1;rounded=0;entryX=1;entryY=0.5;entryDx=0;entryDy=0;exitX=1.002;exitY=0.32;exitDx=0;exitDy=0;exitPerimeter=0;" parent="1" source="eY3jFilrQS6MMeQwwwMx-31" target="eY3jFilrQS6MMeQwwwMx-34" edge="1">
          <mxGeometry width="160" relative="1" as="geometry">
            <mxPoint x="-490" y="429.76" as="sourcePoint" />
            <mxPoint x="-330" y="429.76" as="targetPoint" />
            <Array as="points">
              <mxPoint x="-460" y="441" />
              <mxPoint x="-460" y="115" />
            </Array>
          </mxGeometry>
        </mxCell>
        <mxCell id="eY3jFilrQS6MMeQwwwMx-105" value="" style="endArrow=diamondThin;endFill=1;endSize=24;html=1;rounded=0;entryX=1;entryY=0.5;entryDx=0;entryDy=0;exitX=1;exitY=0.196;exitDx=0;exitDy=0;exitPerimeter=0;" parent="1" source="eY3jFilrQS6MMeQwwwMx-90" target="eY3jFilrQS6MMeQwwwMx-91" edge="1">
          <mxGeometry width="160" relative="1" as="geometry">
            <mxPoint x="360" y="880" as="sourcePoint" />
            <mxPoint x="520" y="880" as="targetPoint" />
            <Array as="points">
              <mxPoint x="430" y="800" />
              <mxPoint x="430" y="615" />
            </Array>
          </mxGeometry>
        </mxCell>
        <mxCell id="eY3jFilrQS6MMeQwwwMx-106" value="DallasTemperature &amp;amp; OneWire(lib)" style="html=1;whiteSpace=wrap;" parent="1" vertex="1">
          <mxGeometry x="-210" y="600" width="120" height="40" as="geometry" />
        </mxCell>
        <mxCell id="eY3jFilrQS6MMeQwwwMx-107" value="" style="endArrow=diamondThin;endFill=1;endSize=24;html=1;rounded=0;entryX=0;entryY=0.5;entryDx=0;entryDy=0;exitX=0;exitY=0.5;exitDx=0;exitDy=0;" parent="1" source="eY3jFilrQS6MMeQwwwMx-98" target="eY3jFilrQS6MMeQwwwMx-106" edge="1">
          <mxGeometry width="160" relative="1" as="geometry">
            <mxPoint x="-320" y="840" as="sourcePoint" />
            <mxPoint x="-160" y="840" as="targetPoint" />
            <Array as="points">
              <mxPoint x="-260" y="745" />
              <mxPoint x="-260" y="620" />
            </Array>
          </mxGeometry>
        </mxCell>
        <mxCell id="eY3jFilrQS6MMeQwwwMx-108" value="TempSensoreNode" style="swimlane;fontStyle=1;align=center;verticalAlign=top;childLayout=stackLayout;horizontal=1;startSize=26;horizontalStack=0;resizeParent=1;resizeParentMax=0;resizeLast=0;collapsible=1;marginBottom=0;whiteSpace=wrap;html=1;" parent="1" vertex="1">
          <mxGeometry x="-760" y="730" width="350" height="350" as="geometry" />
        </mxCell>
        <mxCell id="eY3jFilrQS6MMeQwwwMx-109" value="- address: uint64_t&lt;div&gt;- name: std::string&lt;/div&gt;&lt;div&gt;- connectionState: boolean&lt;/div&gt;" style="text;strokeColor=none;fillColor=none;align=left;verticalAlign=top;spacingLeft=4;spacingRight=4;overflow=hidden;rotatable=0;points=[[0,0.5],[1,0.5]];portConstraint=eastwest;whiteSpace=wrap;html=1;" parent="eY3jFilrQS6MMeQwwwMx-108" vertex="1">
          <mxGeometry y="26" width="350" height="54" as="geometry" />
        </mxCell>
        <mxCell id="eY3jFilrQS6MMeQwwwMx-110" value="" style="line;strokeWidth=1;fillColor=none;align=left;verticalAlign=middle;spacingTop=-1;spacingLeft=3;spacingRight=3;rotatable=0;labelPosition=right;points=[];portConstraint=eastwest;strokeColor=inherit;" parent="eY3jFilrQS6MMeQwwwMx-108" vertex="1">
          <mxGeometry y="80" width="350" height="8" as="geometry" />
        </mxCell>
        <mxCell id="eY3jFilrQS6MMeQwwwMx-111" value="+ TempSensorNode(address: uint64_t, name: std::string, connectionState: boolean): TempSensorNode&lt;div&gt;+ setAddress(uint64_t): void&lt;/div&gt;&lt;div&gt;+ setName(std::string): void&lt;/div&gt;&lt;div&gt;+ setConnectionState(boolean): void&lt;/div&gt;&lt;div&gt;+ getAddress(): uint64_t&lt;/div&gt;&lt;div&gt;+ getName(): std::string&lt;/div&gt;&lt;div&gt;+ isConnected(): boolean&lt;/div&gt;&lt;div&gt;&lt;br&gt;&lt;/div&gt;&lt;div&gt;&lt;u&gt;+doesExit(List: std::vector&amp;lt;TempSensorNode&amp;gt;&amp;amp;, node: TempSensorNode&amp;amp;): boolean&lt;/u&gt;&lt;/div&gt;&lt;div&gt;&lt;u&gt;+ mergeAndCoppy(primary: std::vector&amp;lt;TempSesoreNode&amp;gt;, secondary: std::vector&amp;lt;TempSensorNode&amp;gt;): void&lt;/u&gt;&lt;/div&gt;&lt;div&gt;&lt;u&gt;+ findByName(list: std::vector&amp;lt;TempSensorNode&amp;gt;, name: std::string): TempSensorNode&lt;/u&gt;&lt;/div&gt;&lt;div&gt;&lt;u&gt;+&amp;nbsp;&lt;/u&gt;&lt;u style=&quot;background-color: initial;&quot;&gt;findByAddress(list: std::vector&amp;lt;TempSensorNode&amp;gt;, address: uint64_t): TempSensorNode&lt;/u&gt;&lt;/div&gt;" style="text;strokeColor=none;fillColor=none;align=left;verticalAlign=top;spacingLeft=4;spacingRight=4;overflow=hidden;rotatable=0;points=[[0,0.5],[1,0.5]];portConstraint=eastwest;whiteSpace=wrap;html=1;" parent="eY3jFilrQS6MMeQwwwMx-108" vertex="1">
          <mxGeometry y="88" width="350" height="262" as="geometry" />
        </mxCell>
        <mxCell id="eY3jFilrQS6MMeQwwwMx-113" value="" style="endArrow=open;endFill=1;endSize=12;html=1;rounded=0;" parent="1" source="eY3jFilrQS6MMeQwwwMx-70" target="eY3jFilrQS6MMeQwwwMx-69" edge="1">
          <mxGeometry width="160" relative="1" as="geometry">
            <mxPoint x="540" y="590" as="sourcePoint" />
            <mxPoint x="700" y="590" as="targetPoint" />
            <Array as="points">
              <mxPoint x="790" y="805" />
              <mxPoint x="790" y="695" />
            </Array>
          </mxGeometry>
        </mxCell>
        <mxCell id="eY3jFilrQS6MMeQwwwMx-114" value="" style="endArrow=open;endFill=1;endSize=12;html=1;rounded=0;" parent="1" source="eY3jFilrQS6MMeQwwwMx-65" target="eY3jFilrQS6MMeQwwwMx-63" edge="1">
          <mxGeometry width="160" relative="1" as="geometry">
            <mxPoint x="600" y="470" as="sourcePoint" />
            <mxPoint x="750" y="460" as="targetPoint" />
            <Array as="points">
              <mxPoint x="820" y="560" />
              <mxPoint x="820" y="430" />
            </Array>
          </mxGeometry>
        </mxCell>
        <mxCell id="eY3jFilrQS6MMeQwwwMx-115" value="" style="endArrow=diamondThin;endFill=1;endSize=24;html=1;rounded=0;exitX=0.998;exitY=0.147;exitDx=0;exitDy=0;exitPerimeter=0;" parent="1" source="eY3jFilrQS6MMeQwwwMx-66" target="eY3jFilrQS6MMeQwwwMx-64" edge="1">
          <mxGeometry width="160" relative="1" as="geometry">
            <mxPoint x="600" y="470" as="sourcePoint" />
            <mxPoint x="760" y="470" as="targetPoint" />
            <Array as="points">
              <mxPoint x="800" y="540" />
              <mxPoint x="800" y="460" />
            </Array>
          </mxGeometry>
        </mxCell>
        <mxCell id="eY3jFilrQS6MMeQwwwMx-117" value="" style="endArrow=block;endSize=16;endFill=0;html=1;rounded=0;entryX=0.699;entryY=1;entryDx=0;entryDy=0;entryPerimeter=0;exitX=0.34;exitY=1.113;exitDx=0;exitDy=0;exitPerimeter=0;" parent="1" source="eY3jFilrQS6MMeQwwwMx-54" target="eY3jFilrQS6MMeQwwwMx-8" edge="1">
          <mxGeometry x="0.4814" y="140" width="160" relative="1" as="geometry">
            <mxPoint x="10" y="190" as="sourcePoint" />
            <mxPoint x="60" y="110" as="targetPoint" />
            <Array as="points">
              <mxPoint x="484" y="170" />
              <mxPoint x="30" y="170" />
            </Array>
            <mxPoint as="offset" />
          </mxGeometry>
        </mxCell>
        <mxCell id="eY3jFilrQS6MMeQwwwMx-118" value="" style="endArrow=block;endSize=16;endFill=0;html=1;rounded=0;exitX=0.178;exitY=0.012;exitDx=0;exitDy=0;exitPerimeter=0;" parent="1" source="eY3jFilrQS6MMeQwwwMx-87" target="eY3jFilrQS6MMeQwwwMx-7" edge="1">
          <mxGeometry width="160" relative="1" as="geometry">
            <mxPoint x="140" y="630" as="sourcePoint" />
            <mxPoint x="550" y="434.57" as="targetPoint" />
            <Array as="points">
              <mxPoint x="210" y="610" />
              <mxPoint y="610" />
            </Array>
          </mxGeometry>
        </mxCell>
        <mxCell id="eY3jFilrQS6MMeQwwwMx-119" value="&lt;div&gt;&lt;br&gt;&lt;/div&gt;&lt;div&gt;&lt;br&gt;&lt;/div&gt;" style="endArrow=block;endSize=16;endFill=0;html=1;rounded=0;entryX=0.216;entryY=1.027;entryDx=0;entryDy=0;entryPerimeter=0;exitX=0.633;exitY=-0.014;exitDx=0;exitDy=0;exitPerimeter=0;" parent="1" source="eY3jFilrQS6MMeQwwwMx-97" target="eY3jFilrQS6MMeQwwwMx-8" edge="1">
          <mxGeometry x="0.3666" y="-135" width="160" relative="1" as="geometry">
            <mxPoint x="-280" y="330" as="sourcePoint" />
            <mxPoint x="-50" y="130" as="targetPoint" />
            <mxPoint as="offset" />
          </mxGeometry>
        </mxCell>
        <mxCell id="eY3jFilrQS6MMeQwwwMx-120" value="" style="endArrow=block;endSize=16;endFill=0;html=1;rounded=0;" parent="1" source="eY3jFilrQS6MMeQwwwMx-97" target="eY3jFilrQS6MMeQwwwMx-15" edge="1">
          <mxGeometry width="160" relative="1" as="geometry">
            <mxPoint x="-10" y="410" as="sourcePoint" />
            <mxPoint x="150" y="410" as="targetPoint" />
            <Array as="points">
              <mxPoint x="-80" y="240" />
            </Array>
          </mxGeometry>
        </mxCell>
        <mxCell id="eY3jFilrQS6MMeQwwwMx-121" value="" style="endArrow=open;endFill=1;endSize=12;html=1;rounded=0;exitX=0.012;exitY=0.757;exitDx=0;exitDy=0;exitPerimeter=0;" parent="1" source="eY3jFilrQS6MMeQwwwMx-100" edge="1">
          <mxGeometry width="160" relative="1" as="geometry">
            <mxPoint x="-10" y="410" as="sourcePoint" />
            <mxPoint x="-410" y="840" as="targetPoint" />
          </mxGeometry>
        </mxCell>
        <mxCell id="eY3jFilrQS6MMeQwwwMx-122" value="" style="endArrow=diamondThin;endFill=0;endSize=24;html=1;rounded=0;entryX=0.938;entryY=0.007;entryDx=0;entryDy=0;entryPerimeter=0;" parent="1" source="eY3jFilrQS6MMeQwwwMx-46" target="eY3jFilrQS6MMeQwwwMx-108" edge="1">
          <mxGeometry width="160" relative="1" as="geometry">
            <mxPoint x="-380" y="540" as="sourcePoint" />
            <mxPoint x="-430" y="720" as="targetPoint" />
            <Array as="points">
              <mxPoint x="260" y="570" />
              <mxPoint x="-430" y="580" />
            </Array>
          </mxGeometry>
        </mxCell>
        <mxCell id="eY3jFilrQS6MMeQwwwMx-123" value="" style="endArrow=open;endFill=1;endSize=12;html=1;rounded=0;entryX=1.001;entryY=0.805;entryDx=0;entryDy=0;entryPerimeter=0;" parent="1" source="eY3jFilrQS6MMeQwwwMx-70" target="eY3jFilrQS6MMeQwwwMx-49" edge="1">
          <mxGeometry width="160" relative="1" as="geometry">
            <mxPoint x="80" y="680" as="sourcePoint" />
            <mxPoint x="240" y="680" as="targetPoint" />
            <Array as="points">
              <mxPoint x="460" y="800" />
              <mxPoint x="460" y="530" />
            </Array>
          </mxGeometry>
        </mxCell>
        <mxCell id="eY3jFilrQS6MMeQwwwMx-124" value="" style="endArrow=open;endFill=1;endSize=12;html=1;rounded=0;entryX=1;entryY=0.5;entryDx=0;entryDy=0;" parent="1" source="eY3jFilrQS6MMeQwwwMx-65" target="eY3jFilrQS6MMeQwwwMx-49" edge="1">
          <mxGeometry width="160" relative="1" as="geometry">
            <mxPoint x="-70" y="420" as="sourcePoint" />
            <mxPoint x="90" y="420" as="targetPoint" />
            <Array as="points">
              <mxPoint x="560" y="560" />
              <mxPoint x="560" y="500" />
            </Array>
          </mxGeometry>
        </mxCell>
        <mxCell id="eY3jFilrQS6MMeQwwwMx-125" value="" style="endArrow=open;endFill=1;endSize=12;html=1;rounded=0;entryX=0.994;entryY=0.322;entryDx=0;entryDy=0;entryPerimeter=0;" parent="1" source="eY3jFilrQS6MMeQwwwMx-65" target="eY3jFilrQS6MMeQwwwMx-44" edge="1">
          <mxGeometry width="160" relative="1" as="geometry">
            <mxPoint x="510" y="520" as="sourcePoint" />
            <mxPoint x="670" y="520" as="targetPoint" />
            <Array as="points">
              <mxPoint x="680" y="650" />
              <mxPoint x="60" y="650" />
              <mxPoint x="60" y="446" />
            </Array>
          </mxGeometry>
        </mxCell>
        <mxCell id="eY3jFilrQS6MMeQwwwMx-126" value="" style="endArrow=open;endFill=1;endSize=12;html=1;rounded=0;exitX=0.143;exitY=-0.025;exitDx=0;exitDy=0;exitPerimeter=0;entryX=0.24;entryY=0.978;entryDx=0;entryDy=0;entryPerimeter=0;" parent="1" source="eY3jFilrQS6MMeQwwwMx-65" target="eY3jFilrQS6MMeQwwwMx-62" edge="1">
          <mxGeometry width="160" relative="1" as="geometry">
            <mxPoint x="380" y="410" as="sourcePoint" />
            <mxPoint x="540" y="410" as="targetPoint" />
          </mxGeometry>
        </mxCell>
        <mxCell id="eY3jFilrQS6MMeQwwwMx-127" value="" style="endArrow=open;endFill=1;endSize=12;html=1;rounded=0;entryX=1.011;entryY=0.679;entryDx=0;entryDy=0;entryPerimeter=0;exitX=-0.015;exitY=0.807;exitDx=0;exitDy=0;exitPerimeter=0;" parent="1" source="eY3jFilrQS6MMeQwwwMx-62" target="eY3jFilrQS6MMeQwwwMx-47" edge="1">
          <mxGeometry width="160" relative="1" as="geometry">
            <mxPoint x="380" y="550" as="sourcePoint" />
            <mxPoint x="540" y="550" as="targetPoint" />
            <Array as="points">
              <mxPoint x="480" y="354" />
              <mxPoint x="480" y="420" />
            </Array>
          </mxGeometry>
        </mxCell>
        <mxCell id="eY3jFilrQS6MMeQwwwMx-128" value="" style="endArrow=open;endFill=1;endSize=12;html=1;rounded=0;entryX=0.988;entryY=0.109;entryDx=0;entryDy=0;entryPerimeter=0;exitX=0.004;exitY=0.134;exitDx=0;exitDy=0;exitPerimeter=0;" parent="1" source="eY3jFilrQS6MMeQwwwMx-59" target="eY3jFilrQS6MMeQwwwMx-41" edge="1">
          <mxGeometry width="160" relative="1" as="geometry">
            <mxPoint x="380" y="550" as="sourcePoint" />
            <mxPoint x="540" y="550" as="targetPoint" />
            <Array as="points">
              <mxPoint x="50" y="200" />
              <mxPoint x="50" y="357" />
            </Array>
          </mxGeometry>
        </mxCell>
        <mxCell id="eY3jFilrQS6MMeQwwwMx-129" value="" style="endArrow=open;endFill=1;endSize=12;html=1;rounded=0;" parent="1" target="eY3jFilrQS6MMeQwwwMx-50" edge="1">
          <mxGeometry width="160" relative="1" as="geometry">
            <mxPoint x="220" y="330" as="sourcePoint" />
            <mxPoint x="253.44" y="270" as="targetPoint" />
            <Array as="points">
              <mxPoint x="220" y="280" />
            </Array>
          </mxGeometry>
        </mxCell>
        <mxCell id="eY3jFilrQS6MMeQwwwMx-130" value="" style="endArrow=open;endFill=1;endSize=12;html=1;rounded=0;entryX=0.996;entryY=1.042;entryDx=0;entryDy=0;entryPerimeter=0;" parent="1" source="eY3jFilrQS6MMeQwwwMx-51" target="eY3jFilrQS6MMeQwwwMx-42" edge="1">
          <mxGeometry width="160" relative="1" as="geometry">
            <mxPoint x="160" y="200" as="sourcePoint" />
            <mxPoint x="-120" y="410" as="targetPoint" />
            <Array as="points">
              <mxPoint x="510" y="230" />
              <mxPoint x="100" y="230" />
              <mxPoint x="100" y="396" />
            </Array>
          </mxGeometry>
        </mxCell>
        <mxCell id="eY3jFilrQS6MMeQwwwMx-131" value="" style="endArrow=open;endFill=1;endSize=12;html=1;rounded=0;entryX=1.006;entryY=0.061;entryDx=0;entryDy=0;entryPerimeter=0;exitX=0.167;exitY=1.105;exitDx=0;exitDy=0;exitPerimeter=0;" parent="1" source="eY3jFilrQS6MMeQwwwMx-54" target="eY3jFilrQS6MMeQwwwMx-46" edge="1">
          <mxGeometry width="160" relative="1" as="geometry">
            <mxPoint x="160" y="200" as="sourcePoint" />
            <mxPoint x="320" y="200" as="targetPoint" />
            <Array as="points">
              <mxPoint x="457" y="350" />
            </Array>
          </mxGeometry>
        </mxCell>
        <mxCell id="eY3jFilrQS6MMeQwwwMx-132" value="" style="endArrow=open;endFill=1;endSize=12;html=1;rounded=0;entryX=1.01;entryY=0.276;entryDx=0;entryDy=0;entryPerimeter=0;exitX=0.008;exitY=0.202;exitDx=0;exitDy=0;exitPerimeter=0;" parent="1" source="eY3jFilrQS6MMeQwwwMx-90" target="eY3jFilrQS6MMeQwwwMx-100" edge="1">
          <mxGeometry width="160" relative="1" as="geometry">
            <mxPoint x="30" y="630" as="sourcePoint" />
            <mxPoint x="190" y="630" as="targetPoint" />
          </mxGeometry>
        </mxCell>
        <mxCell id="eY3jFilrQS6MMeQwwwMx-133" value="" style="endArrow=open;endFill=1;endSize=12;html=1;rounded=0;entryX=0.999;entryY=0.646;entryDx=0;entryDy=0;entryPerimeter=0;exitX=-0.014;exitY=0.363;exitDx=0;exitDy=0;exitPerimeter=0;" parent="1" source="eY3jFilrQS6MMeQwwwMx-49" target="eY3jFilrQS6MMeQwwwMx-44" edge="1">
          <mxGeometry width="160" relative="1" as="geometry">
            <mxPoint x="130" y="422" as="sourcePoint" />
            <mxPoint x="-160" y="420" as="targetPoint" />
          </mxGeometry>
        </mxCell>
      </root>
    </mxGraphModel>
  </diagram>
</mxfile>
